<svg width="56" height="56" viewBox="0 0 56 56" fill="none" xmlns="http://www.w3.org/2000/svg">
    <rect width="56" height="56" rx="4" fill="#363636"/>
     <g transform="translate(17,17)" fill="#363636" stroke="none">
        <path fill-rule="evenodd" clip-rule="evenodd" d="M20.7778 0H1.22222C0.547207 0 0 0.547207 0 1.22222V20.7778C0 21.4528 0.547207 22 1.22222 22H20.7778C21.4528 22 22 21.4528 22 20.7778V1.22222C22 0.547207 21.4528 0 20.7778 0ZM7.94444 4.27778C9.29447 4.27778 10.3889 5.37219 10.3889 6.72222C10.3889 8.07225 9.29447 9.16667 7.94444 9.16667C6.59441 9.16667 5.5 8.07225 5.5 6.72222C5.50403 5.37386 6.59609 4.2818 7.94444 4.27778ZM3.05557 19.5556H18.9445C19.1618 19.5527 19.3619 19.4364 19.4719 19.2489C19.5819 19.0614 19.5858 18.83 19.4822 18.6389L14.5445 10.5722C14.4361 10.3952 14.2453 10.2853 14.0378 10.2803C13.8303 10.2754 13.6345 10.3761 13.5178 10.5478L9.77779 15.8889L7.78557 13.8967C7.66873 13.7787 7.50895 13.7134 7.34297 13.7157C7.17699 13.718 7.01908 13.7878 6.90557 13.9089L2.56668 18.59C2.4349 18.775 2.41663 19.0179 2.51925 19.2206C2.62186 19.4232 2.82843 19.5523 3.05557 19.5556Z" fill="white"/>
    </g>
</svg>
